<svg id="Layer_1" xmlns="http://www.w3.org/2000/svg" viewBox="0 0 245.1 144.2"><style>.st0{fill:#b01543}</style><path class="st0" d="M0 36.1V0h216.4v36.1H0zm216.4 108.1H0v-36.1h216.4v36.1zM34.7 98.3L18 61.1c-.5-1-1-2.2-2.1-2.2-1 0-1.1 1.3-1.1 2.6v16.1c0 7 .5 13.9.8 20.8H.8V46.6l.3-.2h25.7l13.4 31.8 13.4-31.8h25.7l.3.2v51.7H64.8c.5-6.9.8-13.7.8-20.8v-16c0-1.3-.2-2.6-1.1-2.6-1.1 0-1.6 1.3-2.1 2.2L45.8 98.3H34.7zm111.6-51.9v12.7c-4.5-.2-9.1-.5-13.7-.5h-8.3v21.9c0 5.9.5 12.1.8 17.9h-16.3c.5-5.7.8-12 .8-17.9V58.6h-8.3c-4.5 0-9.1.3-13.7.5V46.4h58.7zm53.8 15.2c0-4.8-7.7-5.3-17.1-5.3-8.8 0-14.1.6-14.1 5 0 4.5 1.4 5.3 6.7 5.4 8.1.3 16.3.5 24.4 1 10.5.6 15 3.8 15 15-.2 11.7-4.8 16.1-27.9 16.1-18 0-33.2 0-33.2-17.1l13.6.6c0 5.3 7.7 5.7 17.1 5.7 10.4 0 15.6-.6 15.6-4.9 0-4.5-1.4-5.1-6.7-5.4-8.1-.3-16.3-.5-24.4-1-10.5-.6-15-3.8-15-15 .2-11.7 4.8-16.1 27.1-16.1 17.2 0 32.4 0 32.4 17.1l-13.5-1.1zm33 58.6c6.6 0 12 5.4 12 12s-5.4 12-12 12-12-5.4-12-12 5.4-12 12-12zm0 22.2c5.6 0 10.2-4.6 10.2-10.2s-4.6-10.2-10.2-10.2-10.2 4.6-10.2 10.2c.1 5.6 4.6 10.2 10.2 10.2zm-4.6-3.7v-13.6h5.9c2.4 0 4.2 1.4 4.2 3.8 0 1.1-.5 2.2-1.4 2.9 1.3 1.1 1.4 2.9 1.4 4.5v2.4h-2.2v-3.2c0-1.4-1.1-2.5-2.5-2.6h-3.1v5.7l-2.3.1zm2.2-7.9h3c1.3 0 2.6-.2 2.6-1.6 0-1.6-1.3-1.8-2.6-1.8h-3v3.4z"/></svg>